<svg width="183" height="164" viewBox="0 0 183 164" fill="none" xmlns="http://www.w3.org/2000/svg">
<rect width="183" height="164" fill="white"/>
<path d="M10.056 159.336C8.728 159.336 7.496 159.128 6.36 158.712C5.24 158.28 4.264 157.672 3.432 156.888C2.616 156.104 1.976 155.184 1.512 154.128C1.048 153.056 0.816 151.88 0.816 150.6C0.816 149.32 1.048 148.152 1.512 147.096C1.976 146.024 2.616 145.096 3.432 144.312C4.264 143.528 5.24 142.928 6.36 142.512C7.496 142.08 8.728 141.864 10.056 141.864C11.608 141.864 12.992 142.136 14.208 142.68C15.44 143.224 16.464 144.008 17.28 145.032L14.256 147.768C13.712 147.128 13.112 146.64 12.456 146.304C11.816 145.968 11.096 145.8 10.296 145.8C9.608 145.8 8.976 145.912 8.4 146.136C7.824 146.36 7.328 146.688 6.912 147.12C6.512 147.536 6.192 148.04 5.952 148.632C5.728 149.224 5.616 149.88 5.616 150.6C5.616 151.32 5.728 151.976 5.952 152.568C6.192 153.16 6.512 153.672 6.912 154.104C7.328 154.52 7.824 154.84 8.4 155.064C8.976 155.288 9.608 155.4 10.296 155.4C11.096 155.4 11.816 155.232 12.456 154.896C13.112 154.56 13.712 154.072 14.256 153.432L17.28 156.168C16.464 157.176 15.44 157.96 14.208 158.52C12.992 159.064 11.608 159.336 10.056 159.336ZM27.0799 159V156.576L26.7679 155.976V151.512C26.7679 150.792 26.5439 150.24 26.0959 149.856C25.6639 149.456 24.9679 149.256 24.0079 149.256C23.3839 149.256 22.7519 149.36 22.1119 149.568C21.4719 149.76 20.9279 150.032 20.4799 150.384L18.9439 147.288C19.6799 146.808 20.5599 146.44 21.5839 146.184C22.6239 145.912 23.6559 145.776 24.6799 145.776C26.7919 145.776 28.4239 146.264 29.5759 147.24C30.7439 148.2 31.3279 149.712 31.3279 151.776V159H27.0799ZM23.2399 159.216C22.1999 159.216 21.3199 159.04 20.5999 158.688C19.8799 158.336 19.3279 157.856 18.9439 157.248C18.5759 156.64 18.3919 155.96 18.3919 155.208C18.3919 154.408 18.5919 153.72 18.9919 153.144C19.4079 152.552 20.0399 152.104 20.8879 151.8C21.7359 151.48 22.8319 151.32 24.1759 151.32H27.2479V153.696H24.7999C24.0639 153.696 23.5439 153.816 23.2399 154.056C22.9519 154.296 22.8079 154.616 22.8079 155.016C22.8079 155.416 22.9599 155.736 23.2639 155.976C23.5679 156.216 23.9839 156.336 24.5119 156.336C25.0079 156.336 25.4559 156.216 25.8559 155.976C26.2719 155.72 26.5759 155.336 26.7679 154.824L27.3919 156.504C27.1519 157.4 26.6799 158.08 25.9759 158.544C25.2879 158.992 24.3759 159.216 23.2399 159.216ZM40.0142 159.216C38.3502 159.216 37.0542 158.808 36.1262 157.992C35.1982 157.16 34.7342 155.912 34.7342 154.248V143.088H39.2942V154.2C39.2942 154.664 39.4222 155.032 39.6782 155.304C39.9342 155.56 40.2622 155.688 40.6622 155.688C41.2062 155.688 41.6702 155.552 42.0542 155.28L43.1822 158.472C42.7982 158.728 42.3262 158.912 41.7662 159.024C41.2062 159.152 40.6222 159.216 40.0142 159.216ZM32.8382 149.88V146.472H42.2702V149.88H32.8382ZM45.1566 159V142.2H52.8366C54.3726 142.2 55.6926 142.448 56.7966 142.944C57.9166 143.44 58.7806 144.16 59.3886 145.104C59.9966 146.032 60.3006 147.136 60.3006 148.416C60.3006 149.68 59.9966 150.776 59.3886 151.704C58.7806 152.632 57.9166 153.352 56.7966 153.864C55.6926 154.36 54.3726 154.608 52.8366 154.608H47.7966L49.9086 152.544V159H45.1566ZM49.9086 153.048L47.7966 150.864H52.5486C53.5406 150.864 54.2766 150.648 54.7566 150.216C55.2526 149.784 55.5006 149.184 55.5006 148.416C55.5006 147.632 55.2526 147.024 54.7566 146.592C54.2766 146.16 53.5406 145.944 52.5486 145.944H47.7966L49.9086 143.76V153.048ZM62.4953 159V145.992H66.8393V149.784L66.1913 148.704C66.5753 147.728 67.1993 147 68.0633 146.52C68.9273 146.024 69.9753 145.776 71.2073 145.776V149.88C70.9993 149.848 70.8153 149.832 70.6553 149.832C70.5113 149.816 70.3513 149.808 70.1753 149.808C69.2473 149.808 68.4953 150.064 67.9193 150.576C67.3433 151.072 67.0553 151.888 67.0553 153.024V159H62.4953ZM79.4998 159.216C78.0758 159.216 76.8118 158.928 75.7078 158.352C74.6038 157.776 73.7318 156.984 73.0918 155.976C72.4678 154.952 72.1558 153.784 72.1558 152.472C72.1558 151.16 72.4678 150 73.0918 148.992C73.7318 147.984 74.6038 147.2 75.7078 146.64C76.8118 146.064 78.0758 145.776 79.4998 145.776C80.9238 145.776 82.1878 146.064 83.2918 146.64C84.4118 147.2 85.2838 147.984 85.9078 148.992C86.5318 150 86.8438 151.16 86.8438 152.472C86.8438 153.784 86.5318 154.952 85.9078 155.976C85.2838 156.984 84.4118 157.776 83.2918 158.352C82.1878 158.928 80.9238 159.216 79.4998 159.216ZM79.4998 155.592C80.0278 155.592 80.4918 155.472 80.8918 155.232C81.3078 154.992 81.6358 154.64 81.8758 154.176C82.1158 153.696 82.2358 153.128 82.2358 152.472C82.2358 151.816 82.1158 151.264 81.8758 150.816C81.6358 150.352 81.3078 150 80.8918 149.76C80.4918 149.52 80.0278 149.4 79.4998 149.4C78.9878 149.4 78.5238 149.52 78.1078 149.76C77.7078 150 77.3798 150.352 77.1238 150.816C76.8838 151.264 76.7638 151.816 76.7638 152.472C76.7638 153.128 76.8838 153.696 77.1238 154.176C77.3798 154.64 77.7078 154.992 78.1078 155.232C78.5238 155.472 78.9878 155.592 79.4998 155.592ZM88.4042 163.872C87.7962 163.872 87.2202 163.808 86.6762 163.68C86.1162 163.568 85.6362 163.408 85.2362 163.2L86.3882 159.96C86.8042 160.216 87.2762 160.344 87.8042 160.344C88.2042 160.344 88.5242 160.208 88.7642 159.936C89.0202 159.664 89.1482 159.232 89.1482 158.64V145.992H93.7082V158.664C93.7082 160.248 93.2442 161.512 92.3162 162.456C91.3882 163.4 90.0842 163.872 88.4042 163.872ZM91.4282 144.552C90.5962 144.552 89.9242 144.32 89.4122 143.856C88.9002 143.392 88.6442 142.816 88.6442 142.128C88.6442 141.44 88.9002 140.864 89.4122 140.4C89.9242 139.936 90.5962 139.704 91.4282 139.704C92.2602 139.704 92.9322 139.928 93.4442 140.376C93.9562 140.808 94.2122 141.368 94.2122 142.056C94.2122 142.776 93.9562 143.376 93.4442 143.856C92.9482 144.32 92.2762 144.552 91.4282 144.552ZM103.46 159.216C101.924 159.216 100.58 158.928 99.4277 158.352C98.2917 157.76 97.4037 156.96 96.7637 155.952C96.1397 154.928 95.8277 153.768 95.8277 152.472C95.8277 151.176 96.1317 150.024 96.7397 149.016C97.3637 147.992 98.2197 147.2 99.3077 146.64C100.396 146.064 101.62 145.776 102.98 145.776C104.26 145.776 105.428 146.04 106.484 146.568C107.54 147.08 108.38 147.84 109.004 148.848C109.628 149.856 109.94 151.08 109.94 152.52C109.94 152.68 109.932 152.864 109.916 153.072C109.9 153.28 109.884 153.472 109.868 153.648H99.5717V151.248H107.444L105.716 151.92C105.732 151.328 105.62 150.816 105.38 150.384C105.156 149.952 104.836 149.616 104.42 149.376C104.02 149.136 103.548 149.016 103.004 149.016C102.46 149.016 101.98 149.136 101.564 149.376C101.164 149.616 100.852 149.96 100.628 150.408C100.404 150.84 100.292 151.352 100.292 151.944V152.64C100.292 153.28 100.42 153.832 100.676 154.296C100.948 154.76 101.332 155.12 101.828 155.376C102.324 155.616 102.916 155.736 103.604 155.736C104.244 155.736 104.788 155.648 105.236 155.472C105.7 155.28 106.156 154.992 106.604 154.608L109.004 157.104C108.38 157.792 107.612 158.32 106.7 158.688C105.788 159.04 104.708 159.216 103.46 159.216ZM118.69 159.216C117.25 159.216 115.962 158.928 114.826 158.352C113.706 157.776 112.826 156.984 112.186 155.976C111.546 154.952 111.226 153.784 111.226 152.472C111.226 151.16 111.546 150 112.186 148.992C112.826 147.984 113.706 147.2 114.826 146.64C115.962 146.064 117.25 145.776 118.69 145.776C120.162 145.776 121.434 146.088 122.506 146.712C123.578 147.336 124.338 148.216 124.786 149.352L121.258 151.152C120.954 150.544 120.578 150.104 120.13 149.832C119.682 149.544 119.194 149.4 118.666 149.4C118.138 149.4 117.658 149.52 117.226 149.76C116.794 150 116.45 150.352 116.194 150.816C115.954 151.264 115.834 151.816 115.834 152.472C115.834 153.144 115.954 153.712 116.194 154.176C116.45 154.64 116.794 154.992 117.226 155.232C117.658 155.472 118.138 155.592 118.666 155.592C119.194 155.592 119.682 155.456 120.13 155.184C120.578 154.896 120.954 154.448 121.258 153.84L124.786 155.64C124.338 156.776 123.578 157.656 122.506 158.28C121.434 158.904 120.162 159.216 118.69 159.216ZM132.522 159.216C130.858 159.216 129.562 158.808 128.634 157.992C127.706 157.16 127.242 155.912 127.242 154.248V143.088H131.802V154.2C131.802 154.664 131.93 155.032 132.186 155.304C132.442 155.56 132.77 155.688 133.17 155.688C133.714 155.688 134.178 155.552 134.562 155.28L135.69 158.472C135.306 158.728 134.834 158.912 134.274 159.024C133.714 159.152 133.13 159.216 132.522 159.216ZM125.346 149.88V146.472H134.778V149.88H125.346ZM142.176 159.216C141.072 159.216 139.992 159.088 138.936 158.832C137.896 158.576 137.056 158.256 136.416 157.872L137.784 154.752C138.392 155.12 139.104 155.416 139.92 155.64C140.736 155.848 141.536 155.952 142.32 155.952C143.088 155.952 143.616 155.872 143.904 155.712C144.208 155.552 144.36 155.336 144.36 155.064C144.36 154.808 144.216 154.624 143.928 154.512C143.656 154.384 143.288 154.288 142.824 154.224C142.376 154.16 141.88 154.088 141.336 154.008C140.792 153.928 140.24 153.824 139.68 153.696C139.136 153.552 138.632 153.344 138.168 153.072C137.72 152.784 137.36 152.4 137.088 151.92C136.816 151.44 136.68 150.832 136.68 150.096C136.68 149.264 136.92 148.528 137.4 147.888C137.896 147.232 138.616 146.72 139.56 146.352C140.504 145.968 141.656 145.776 143.016 145.776C143.928 145.776 144.848 145.872 145.776 146.064C146.72 146.24 147.512 146.512 148.152 146.88L146.784 149.976C146.144 149.608 145.504 149.36 144.864 149.232C144.224 149.088 143.616 149.016 143.04 149.016C142.272 149.016 141.728 149.104 141.408 149.28C141.104 149.456 140.952 149.672 140.952 149.928C140.952 150.184 141.088 150.384 141.36 150.528C141.632 150.656 141.992 150.76 142.44 150.84C142.904 150.904 143.408 150.976 143.952 151.056C144.496 151.12 145.04 151.224 145.584 151.368C146.144 151.512 146.648 151.728 147.096 152.016C147.56 152.288 147.928 152.664 148.2 153.144C148.472 153.608 148.608 154.208 148.608 154.944C148.608 155.744 148.36 156.464 147.864 157.104C147.384 157.744 146.664 158.256 145.704 158.64C144.76 159.024 143.584 159.216 142.176 159.216ZM155.307 159.336C154.139 159.336 152.971 159.192 151.803 158.904C150.651 158.616 149.643 158.208 148.779 157.68L150.507 154.104C151.179 154.552 151.923 154.896 152.739 155.136C153.571 155.376 154.379 155.496 155.163 155.496C155.979 155.496 156.627 155.344 157.107 155.04C157.587 154.736 157.827 154.304 157.827 153.744C157.827 153.248 157.627 152.856 157.227 152.568C156.827 152.264 156.171 152.112 155.259 152.112H153.267V149.112L157.779 144.24L158.235 145.872H149.643V142.2H161.787V145.176L157.275 150.048L154.947 148.728H156.243C158.339 148.728 159.923 149.2 160.995 150.144C162.083 151.072 162.627 152.272 162.627 153.744C162.627 154.704 162.363 155.608 161.835 156.456C161.323 157.304 160.531 158 159.459 158.544C158.387 159.072 157.003 159.336 155.307 159.336ZM165.016 159V142.2H172.96C174.816 142.2 176.448 142.544 177.856 143.232C179.264 143.92 180.36 144.888 181.144 146.136C181.944 147.384 182.344 148.872 182.344 150.6C182.344 152.312 181.944 153.8 181.144 155.064C180.36 156.312 179.264 157.28 177.856 157.968C176.448 158.656 174.816 159 172.96 159H165.016ZM169.768 155.208H172.768C173.728 155.208 174.56 155.032 175.264 154.68C175.984 154.312 176.544 153.784 176.944 153.096C177.344 152.392 177.544 151.56 177.544 150.6C177.544 149.624 177.344 148.792 176.944 148.104C176.544 147.416 175.984 146.896 175.264 146.544C174.56 146.176 173.728 145.992 172.768 145.992H169.768V155.208Z" fill="#1E1E1E"/>
<path d="M18.4434 67.5C17.5502 65.953 17.5502 64.047 18.4434 62.5L53.0566 2.54809C53.9498 1.00109 55.6004 0.0480957 57.3868 0.0480957H126.613C128.4 0.0480957 130.05 1.00109 130.943 2.5481L165.557 62.5C166.45 64.047 166.45 65.953 165.557 67.5L130.943 127.452C130.05 128.999 128.4 129.952 126.613 129.952H57.3867C55.6004 129.952 53.9498 128.999 53.0566 127.452L18.4434 67.5Z" fill="#2261B9"/>
<path fill-rule="evenodd" clip-rule="evenodd" d="M59 28C57.3431 28 56 29.3431 56 31V35C56 36.6569 57.3431 38 59 38H63C64.6569 38 66 36.6569 66 35V34H87.1C87.5633 36.2822 89.581 38 92 38C94.419 38 96.4367 36.2822 96.9 34H118V35C118 36.6569 119.343 38 121 38H125C126.657 38 128 36.6569 128 35V31C128 29.3431 126.657 28 125 28H121C119.343 28 118 29.3431 118 31V32H96.9C96.4367 29.7178 94.419 28 92 28C89.581 28 87.5633 29.7178 87.1 32H66V31C66 29.3431 64.6569 28 63 28H59ZM63.5 30.5H58.5V35.5H63.5V30.5ZM125.5 30.5H120.5V35.5H125.5V30.5ZM94.5 33C94.5 34.3807 93.3807 35.5 92 35.5C90.6193 35.5 89.5 34.3807 89.5 33C89.5 31.6193 90.6193 30.5 92 30.5C93.3807 30.5 94.5 31.6193 94.5 33Z" fill="white"/>
<path fill-rule="evenodd" clip-rule="evenodd" d="M61 71C63.7614 71 66 68.7614 66 66C66 63.2386 63.7614 61 61 61C58.2386 61 56 63.2386 56 66C56 68.7614 58.2386 71 61 71ZM61 68.5C62.3807 68.5 63.5 67.3807 63.5 66C63.5 64.6193 62.3807 63.5 61 63.5C59.6193 63.5 58.5 64.6193 58.5 66C58.5 67.3807 59.6193 68.5 61 68.5Z" fill="white"/>
<path fill-rule="evenodd" clip-rule="evenodd" d="M123 71C125.761 71 128 68.7614 128 66C128 63.2386 125.761 61 123 61C120.239 61 118 63.2386 118 66C118 68.7614 120.239 71 123 71ZM123 68.5C124.381 68.5 125.5 67.3807 125.5 66C125.5 64.6193 124.381 63.5 123 63.5C121.619 63.5 120.5 64.6193 120.5 66C120.5 67.3807 121.619 68.5 123 68.5Z" fill="white"/>
<path fill-rule="evenodd" clip-rule="evenodd" d="M59 93C57.3431 93 56 94.3431 56 96V100C56 101.657 57.3431 103 59 103H63C64.6569 103 66 101.657 66 100V99H87.1C87.5633 101.282 89.581 103 92 103C94.419 103 96.4367 101.282 96.9 99H118V100C118 101.657 119.343 103 121 103H125C126.657 103 128 101.657 128 100V96C128 94.3431 126.657 93 125 93H121C119.343 93 118 94.3431 118 96V97H96.9C96.4367 94.7178 94.419 93 92 93C89.581 93 87.5633 94.7178 87.1 97H66V96C66 94.3431 64.6569 93 63 93H59ZM63.5 95.5H58.5V100.5H63.5V95.5ZM125.5 95.5H120.5V100.5H125.5V95.5ZM94.5 98C94.5 99.3807 93.3807 100.5 92 100.5C90.6193 100.5 89.5 99.3807 89.5 98C89.5 96.6193 90.6193 95.5 92 95.5C93.3807 95.5 94.5 96.6193 94.5 98Z" fill="white"/>
<path d="M61 38V62" stroke="white" stroke-width="2"/>
<path d="M123 38V62" stroke="white" stroke-width="2"/>
<path d="M123 70V94" stroke="white" stroke-width="2"/>
<path d="M61 70V94" stroke="white" stroke-width="2"/>
<line x1="92.4657" y1="45.8849" x2="73.4657" y2="55.8849" stroke="white" stroke-width="2"/>
<line y1="-1" x2="21.4709" y2="-1" transform="matrix(0.884918 0.465746 0.465746 -0.884918 92 45)" stroke="white" stroke-width="2"/>
<line x1="74" y1="55" x2="74" y2="75" stroke="white" stroke-width="2"/>
<line x1="110" y1="55" x2="110" y2="75" stroke="white" stroke-width="2"/>
<line x1="73.4657" y1="74.1151" x2="92.4657" y2="84.1151" stroke="white" stroke-width="2"/>
<line y1="-1" x2="21.4709" y2="-1" transform="matrix(-0.884918 0.465746 0.465746 0.884918 111 75)" stroke="white" stroke-width="2"/>
<line x1="92" y1="84" x2="92" y2="64" stroke="white" stroke-width="2"/>
<path d="M73.5 55.5L92.5025 63.8519" stroke="white" stroke-width="2"/>
<path d="M110.5 55.5L91.5828 63.8519" stroke="white" stroke-width="2"/>
</svg>
